<?xml version="1.0" encoding="UTF-8" standalone="no"?>
<!--?xml version="1.0" encoding="utf-8"?-->

<!-- Generator: Adobe Illustrator 15.1.0, SVG Export Plug-In . SVG Version: 6.00 Build 0)  -->

<svg
   version="1.1"
   id="_x32_"
   x="0px"
   y="0px"
   width="512"
   height="512"
   viewBox="0 0 512 512"
   style="opacity:1"
   xml:space="preserve"
   xmlns="http://www.w3.org/2000/svg"
   xmlns:svg="http://www.w3.org/2000/svg"><defs
   id="defs3" />
<style
   type="text/css"
   id="style1">

	.st0{fill:#4B4B4B;}

</style>
<g
   id="g3"
   style="fill:#27272a;fill-opacity:1">
	<path
   class="st0"
   d="M 509.445,113.129 C 506.898,99.91 502.398,86.988 495.992,74.77 489.601,62.567 481.242,51.129 471.054,40.942 457.491,27.364 441.648,17.067 424.789,10.223 399.492,0.004 371.961,-2.558 345.523,2.567 c -13.219,2.563 -26.156,7 -38.359,13.422 -12.172,6.422 -23.641,14.75 -33.828,24.953 l -66.25,66.25 c -13.375,13.344 -13.375,35.047 0,48.391 13.375,13.344 35.031,13.344 48.391,0 l 66.25,-66.281 c 7.031,-7 15.016,-12.172 23.594,-15.672 12.844,-5.203 27.031,-6.531 40.547,-3.906 6.75,1.313 13.328,3.594 19.531,6.844 6.188,3.25 12,7.469 17.281,12.734 7.031,7.078 12.187,15.047 15.687,23.609 5.203,12.844 6.531,27.047 3.906,40.547 -1.313,6.766 -3.594,13.344 -6.828,19.516 -3.281,6.219 -7.484,12.031 -12.765,17.313 l -66.25,66.234 c -13.359,13.359 -13.359,35.047 0,48.391 13.359,13.344 35.016,13.344 48.375,0 l 66.25,-66.265 c 13.594,-13.563 23.875,-29.406 30.703,-46.266 10.25,-25.298 12.797,-52.83 7.687,-79.252 z"
   style="fill:#27272a;fill-opacity:1"
   id="path1" />
	<path
   class="st0"
   d="m 256.54,356.426 -66.266,66.266 c -7.047,7.016 -15.031,12.188 -23.594,15.672 -12.844,5.219 -27.047,6.547 -40.547,3.938 -6.766,-1.328 -13.328,-3.625 -19.531,-6.859 -6.188,-3.266 -12,-7.5 -17.281,-12.75 -7.031,-7.063 -12.203,-15.031 -15.688,-23.609 -5.203,-12.828 -6.531,-27.031 -3.922,-40.563 1.313,-6.75 3.609,-13.328 6.844,-19.516 3.281,-6.188 7.484,-12 12.766,-17.297 l 66.266,-66.25 c 13.344,-13.344 13.344,-35.016 0,-48.359 -13.375,-13.359 -35.031,-13.359 -48.391,0 l -66.25,66.234 c -13.594,13.594 -23.875,29.406 -30.719,46.297 -10.234,25.266 -12.781,52.844 -7.672,79.219 2.547,13.219 7.031,26.156 13.453,38.359 6.406,12.203 14.75,23.672 24.938,33.844 13.594,13.578 29.406,23.891 46.266,30.688 25.281,10.266 52.844,12.813 79.25,7.703 13.234,-2.563 26.156,-7.047 38.344,-13.453 12.203,-6.391 23.672,-14.75 33.859,-24.938 l 66.25,-66.266 c 13.344,-13.344 13.344,-35.016 0,-48.359 -13.375,-13.361 -35.032,-13.361 -48.375,-0.001 z"
   style="fill:#27272a;fill-opacity:1"
   id="path2" />
	<path
   class="st0"
   d="m 342.43,169.567 c -13.344,-13.344 -35.016,-13.344 -48.375,0 l -124.516,124.5 c -13.344,13.359 -13.344,35.016 0,48.359 13.375,13.375 35.047,13.375 48.391,0 l 124.5,-124.5 c 13.375,-13.359 13.375,-35 0,-48.359 z"
   style="fill:#27272a;fill-opacity:1"
   id="path3" />
</g>
</svg>
